<svg xmlns="http://www.w3.org/2000/svg" viewBox="0 0 550.38 80.24"><defs><style>.cls-1{fill:#808285;}.cls-2{fill:#fff;}</style></defs><g id="Слой_2" data-name="Слой 2"><g id="Layer_3" data-name="Layer 3"><path class="cls-1" d="M80.25,40.12A40.12,40.12,0,1,1,40.13,0,40.12,40.12,0,0,1,80.25,40.12"/><path class="cls-2" d="M38.09,17.93S41.28,20,39.17,22.6s-3.62,3.22-3.79,4.9c0,0-1.45-1.52.44-3.66S39.51,20.55,38.09,17.93Z"/><path class="cls-2" d="M40.35,22.41s-.16,1.67-2.78,3.25-1.39,2.18-1.42,2.05S39.81,27.34,40.35,22.41Z"/><path class="cls-2" d="M34.86,17s1.31-.23,1.39.41c.19,1.58-1.58,2.88-3.57,4.58-2.39,2.05-2.09,2.72-2.12,2.84s-1.61-1.67.32-3.5C30.89,21.33,34.23,18.9,34.86,17Z"/><path class="cls-2" d="M34.45,17,30,21.32S29.65,17.88,34.45,17Z"/><path class="cls-2" d="M68.8,61.53H62.59a.75.75,0,0,1-.69-.71V43C61.9,37.77,61.08,36,58,36c-2.05,0-5.06,1.75-7.59,3.93V60.82a.75.75,0,0,1-.69.71H43.47a.75.75,0,0,1-.69-.71v-30a.75.75,0,0,1,.69-.71h5.74a.75.75,0,0,1,.69.71v3c3.12-2.72,6.76-4.65,10.29-4.65,6.23,0,9.3,3.63,9.3,11.43V60.82A.76.76,0,0,1,68.8,61.53Z"/><path class="cls-2" d="M27.67,17.51a19.81,19.81,0,0,0-3.93-.43c-8.88,0-10.76,5-10.76,11.18V60.82a.76.76,0,0,0,.69.71h6.2a.76.76,0,0,0,.7-.71V35.89h4.49a.76.76,0,0,0,.7-.71V30.8a.75.75,0,0,0-.7-.71H20.58V28.27c0-3.81,1.12-5,4.05-5a9.07,9.07,0,0,1,1.46.13.91.91,0,0,0,.86-.55c.07-.29.85-3.17,1.22-4.53A.69.69,0,0,0,27.67,17.51Z"/><path class="cls-2" d="M40.28,60.82v-30a.88.88,0,0,0-.69-.8,48,48,0,0,0-11,0,.87.87,0,0,0-.69.79v4.38a.68.68,0,0,0,.69.66c1.37-.1,2.75-.16,4.13-.18V60.82a.76.76,0,0,0,.7.71h6.21A.76.76,0,0,0,40.28,60.82Z"/><path class="cls-1" d="M127.38,37.91c-2.61-2.23-6.44-3.37-11.37-3.37h-7.3V22.86h18.24V17.21H102.48v44.2H116.2c5.07,0,8.9-1.16,11.38-3.44s3.76-5.71,3.76-10.16S130,40.16,127.38,37.91Zm-11,18h-7.62V40.07h7.68a9.45,9.45,0,0,1,6.08,1.85c1.5,1.21,2.26,3.23,2.26,6S124,52.79,122.58,54A9.34,9.34,0,0,1,116.33,55.89Z"/><path class="cls-1" d="M148.93,28.72A15.8,15.8,0,0,0,142.27,30a12.35,12.35,0,0,0-4.63,3.88l-.32.44.44.31,3.49,2.46.41.29.31-.39a8.94,8.94,0,0,1,2.84-2.35,7.8,7.8,0,0,1,3.67-.88,5.9,5.9,0,0,1,4.38,1.52c1,1,1.48,2.7,1.5,5.05a42.57,42.57,0,0,0-6,.52,23.11,23.11,0,0,0-6.15,1.82,13.35,13.35,0,0,0-4.68,3.54,8.75,8.75,0,0,0-1.9,5.77,9.8,9.8,0,0,0,1,4.44,9.47,9.47,0,0,0,2.5,3.18,10.63,10.63,0,0,0,3.54,1.91,13.23,13.23,0,0,0,4.08.64,12.5,12.5,0,0,0,4.83-.91,11.81,11.81,0,0,0,3.09-1.87l.16,1.6,0,.48h5.54V40.77c0-4.27-1-7.38-3-9.25S152.49,28.72,148.93,28.72Zm5.42,16.6v8.78a15.47,15.47,0,0,1-3.1,2,8.85,8.85,0,0,1-3.94.88,7.46,7.46,0,0,1-2-.27,5.09,5.09,0,0,1-1.76-.88,5.23,5.23,0,0,1-1.32-1.56,4.56,4.56,0,0,1-.51-2.26,4.74,4.74,0,0,1,1.19-3.39,7.94,7.94,0,0,1,3.16-2,18.28,18.28,0,0,1,4.3-1C151.79,45.47,153.11,45.38,154.35,45.33Z"/><polygon class="cls-1" points="189.03 29.5 188.5 29.5 188.5 30.03 188.5 42.24 174.23 42.24 174.23 30.03 174.23 29.5 173.7 29.5 168.66 29.5 168.13 29.5 168.13 30.03 168.13 60.88 168.13 61.41 168.66 61.41 173.7 61.41 174.23 61.41 174.23 60.88 174.23 47.38 188.5 47.38 188.5 60.88 188.5 61.41 189.03 61.41 194.07 61.41 194.6 61.41 194.6 60.88 194.6 30.03 194.6 29.5 194.07 29.5 189.03 29.5"/><path class="cls-1" d="M217.72,44.57a8.76,8.76,0,0,0,1.21-1.89c.47-.94,1.13-2.3,2-4.15a7.72,7.72,0,0,1,2.18-3.19,4.65,4.65,0,0,1,2.65-.72h2.4V29.5H224.6a13.24,13.24,0,0,0-2.63.24,5.62,5.62,0,0,0-2.25,1,8.5,8.5,0,0,0-1.9,2.1A23.94,23.94,0,0,0,216,36.21c-.61,1.31-1.11,2.34-1.51,3.15a12.3,12.3,0,0,1-1.08,1.82,2.53,2.53,0,0,1-.88.78,2.62,2.62,0,0,1-1.1.21h-2.9V29.5h-6V61.41h6V47.31h4.11l9.48,13.87.16.23h7.25l-.58-.83Z"/><path class="cls-1" d="M267.89,22.66V16.37h-6.23v6.29c-5.47.29-9.78,1.84-12.83,4.61s-4.77,6.91-4.77,12,1.56,9.14,4.66,12.06,7.34,4.39,12.94,4.68v6.1h6.23V56c5.64-.29,10-1.89,13-4.75s4.63-7,4.63-12-1.56-9.13-4.63-12S273.52,23,267.89,22.66ZM250.36,39.28c0-3.71,1.06-6.52,3.15-8.37A12.88,12.88,0,0,1,261.66,28V50.63a12.76,12.76,0,0,1-8.05-2.86C251.45,45.92,250.36,43.06,250.36,39.28Zm28.89,0c0,3.83-1.08,6.7-3.21,8.52a12.91,12.91,0,0,1-8.15,2.83V28a14.53,14.53,0,0,1,4.28.74,10.79,10.79,0,0,1,3.74,2.16,9.85,9.85,0,0,1,2.45,3.5A12.47,12.47,0,0,1,279.25,39.28Z"/><polygon class="cls-1" points="312.7 29.5 312.17 29.5 312.17 30.03 312.17 33.71 297.77 49.8 297.77 30.03 297.77 29.5 297.24 29.5 292.39 29.5 291.86 29.5 291.86 30.03 291.86 60.88 291.86 61.41 292.39 61.41 297.24 61.41 297.77 61.41 297.77 60.88 297.77 57.2 312.17 41.12 312.17 60.88 312.17 61.41 312.7 61.41 317.55 61.41 318.08 61.41 318.08 60.88 318.08 30.03 318.08 29.5 317.55 29.5 312.7 29.5"/><polygon class="cls-1" points="347.3 29.5 346.78 29.5 346.78 30.03 346.78 42.24 332.5 42.24 332.5 30.03 332.5 29.5 331.98 29.5 326.93 29.5 326.4 29.5 326.4 30.03 326.4 60.88 326.4 61.41 326.93 61.41 331.98 61.41 332.5 61.41 332.5 60.88 332.5 47.38 346.78 47.38 346.78 60.88 346.78 61.41 347.3 61.41 352.35 61.41 352.88 61.41 352.88 60.88 352.88 30.03 352.88 29.5 352.35 29.5 347.3 29.5"/><path class="cls-1" d="M382.65,51.64l-.49-.3-.27.51a9.37,9.37,0,0,1-3.35,3.93,7.8,7.8,0,0,1-4,1.16,8.41,8.41,0,0,1-3.5-.77,8.09,8.09,0,0,1-2.88-2.22,11.47,11.47,0,0,1-2-3.62,16.45,16.45,0,0,1,0-9.81,12,12,0,0,1,1.95-3.62,8.22,8.22,0,0,1,2.71-2.22,6.84,6.84,0,0,1,3.06-.76,7.32,7.32,0,0,1,4,1.21,9.79,9.79,0,0,1,3.33,4.18l.26.54.5-.32,3.69-2.33L386,37l-.15-.4a12.17,12.17,0,0,0-1.32-2.44,12.64,12.64,0,0,0-2.36-2.57,12.78,12.78,0,0,0-3.51-2,13,13,0,0,0-4.76-.81,15.44,15.44,0,0,0-5.22.93,12.88,12.88,0,0,0-4.72,3,15,15,0,0,0-3.36,5.26,20.81,20.81,0,0,0-1.27,7.63,19.25,19.25,0,0,0,1.27,7.29A15.53,15.53,0,0,0,363.94,58a13.35,13.35,0,0,0,4.81,3.1,15.85,15.85,0,0,0,5.52,1,13.85,13.85,0,0,0,6.89-1.85,12.8,12.8,0,0,0,5.16-5.76l.21-.43-.4-.25Z"/><path class="cls-1" d="M415,33.29a11.64,11.64,0,0,0-4.47-3.39,15.5,15.5,0,0,0-6.23-1.17,14.41,14.41,0,0,0-5.87,1.17,12.51,12.51,0,0,0-4.52,3.38A15.92,15.92,0,0,0,391,38.49a21.19,21.19,0,0,0-1,6.8c0,5.46,1.38,9.68,4.09,12.53s6.53,4.3,11.32,4.3a13.43,13.43,0,0,0,7.64-2,15.16,15.16,0,0,0,4.66-5l.25-.43-.41-.28-3.3-2.2-.46-.3-.29.46a10.88,10.88,0,0,1-3.15,3.27,7.93,7.93,0,0,1-4.55,1.27,8.56,8.56,0,0,1-7.15-3.1,13.19,13.19,0,0,1-2.53-8.13h22.16l0-.51a22,22,0,0,0-.7-6.66A14.48,14.48,0,0,0,415,33.29Zm-10.7.57a7.77,7.77,0,0,1,2.61.46,6.92,6.92,0,0,1,4,3.64,7.93,7.93,0,0,1,.69,2.74H396.66a9,9,0,0,1,2.75-5.14A7.55,7.55,0,0,1,404.29,33.85Z"/><path class="cls-1" d="M448.87,33.74a11.68,11.68,0,0,0-4.1-3.66,12.65,12.65,0,0,0-6.07-1.36,16.06,16.06,0,0,0-4.85.73,13.47,13.47,0,0,0-3.7,1.88l-.24-1.4-.07-.44h-5.51V73.63h6V61.32a17.34,17.34,0,0,0,5.55.8,16.65,16.65,0,0,0,6.34-1.21,14.31,14.31,0,0,0,5.07-3.46,16.17,16.17,0,0,0,3.31-5.38,19.49,19.49,0,0,0,1.2-7,26.59,26.59,0,0,0-.69-6.11A15.42,15.42,0,0,0,448.87,33.74Zm-3.06,11.55a14.74,14.74,0,0,1-.81,5A10.23,10.23,0,0,1,442.75,54a9.9,9.9,0,0,1-3.44,2.27,11.65,11.65,0,0,1-4.37.8,9.72,9.72,0,0,1-2.88-.4,8,8,0,0,1-1.7-.71V36.79a13.46,13.46,0,0,1,3.25-2.14,8.92,8.92,0,0,1,3.79-.86,7.37,7.37,0,0,1,4,1,7.71,7.71,0,0,1,2.58,2.61,11.82,11.82,0,0,1,1.42,3.71A20.38,20.38,0,0,1,445.81,45.29Z"/><path class="cls-1" d="M481.92,46.46a6.32,6.32,0,0,0-2.19-1.38c-.25-.1-.51-.18-.77-.26a6.91,6.91,0,0,0,2.18-2,8.64,8.64,0,0,0,1.49-5.16A7.38,7.38,0,0,0,480,31.59c-1.73-1.38-4.3-2.09-7.64-2.09H458.55V61.41H473.7a13,13,0,0,0,4.07-.61A9.52,9.52,0,0,0,481,59a8.28,8.28,0,0,0,2.18-2.93,9.73,9.73,0,0,0,.79-4,8.93,8.93,0,0,0-.55-3.34A6.69,6.69,0,0,0,481.92,46.46ZM472,42.63h-7.43v-8h7.88c2.86,0,4.19,1.17,4.19,3.68A4,4,0,0,1,472,42.63Zm-7.43,5.13h8.07a5.86,5.86,0,0,1,4,1.22A3.91,3.91,0,0,1,478,52a4.77,4.77,0,0,1-.4,2.06,3.46,3.46,0,0,1-1,1.29,4.22,4.22,0,0,1-1.52.69,8.31,8.31,0,0,1-1.89.21h-8.59Z"/><polygon class="cls-1" points="511.02 29.5 510.49 29.5 510.49 30.03 510.49 33.71 496.08 49.8 496.08 30.03 496.08 29.5 495.56 29.5 490.71 29.5 490.18 29.5 490.18 30.03 490.18 60.88 490.18 61.41 490.71 61.41 495.56 61.41 496.08 61.41 496.08 60.88 496.08 57.2 510.49 41.12 510.49 60.88 510.49 61.41 511.02 61.41 515.87 61.41 516.39 61.41 516.39 60.88 516.39 30.03 516.39 29.5 515.87 29.5 511.02 29.5"/><path class="cls-1" d="M550,53.84l-3.49-2.2-.49-.3-.26.51a9.35,9.35,0,0,1-3.36,3.93,7.79,7.79,0,0,1-4,1.16,8.35,8.35,0,0,1-3.49-.77A8.11,8.11,0,0,1,532,53.94a11.51,11.51,0,0,1-2-3.62,16.45,16.45,0,0,1,0-9.81A11.87,11.87,0,0,1,532,36.89a8.28,8.28,0,0,1,2.71-2.22,6.85,6.85,0,0,1,3.06-.76,7.34,7.34,0,0,1,4,1.21A9.85,9.85,0,0,1,545,39.31l.25.54.5-.32,3.69-2.33.37-.23-.15-.4a12.2,12.2,0,0,0-1.32-2.44,12.51,12.51,0,0,0-5.87-4.6,13,13,0,0,0-4.75-.81,15.49,15.49,0,0,0-5.22.93,12.93,12.93,0,0,0-4.72,3,15,15,0,0,0-3.36,5.26,20.85,20.85,0,0,0-1.27,7.63,19.25,19.25,0,0,0,1.27,7.29A15.65,15.65,0,0,0,527.78,58a13.39,13.39,0,0,0,4.81,3.1,15.86,15.86,0,0,0,5.53,1A13.86,13.86,0,0,0,545,60.28a12.81,12.81,0,0,0,5.17-5.76l.2-.43Z"/></g></g></svg>