<svg xmlns="http://www.w3.org/2000/svg" xmlns:xlink="http://www.w3.org/1999/xlink" width="29px" height="26px">
<path fill-rule="evenodd"  fill="rgb(103, 187, 233)"
      d="M28.902,5.572 L25.484,16.920 C25.474,16.948 25.460,16.972 25.449,16.999 L8.000,16.999 C6.857,12.008 5.458,2.990 5.458,2.990 L0.875,2.990 C0.291,2.990 -0.014,2.857 -0.014,2.347 L-0.014,0.929 C-0.014,0.401 0.248,-0.002 0.810,-0.002 L6.238,-0.002 C7.067,-0.002 7.524,0.689 7.663,1.269 L8.284,3.933 L27.599,3.937 C27.960,3.937 28.451,4.084 28.806,4.585 C28.943,4.781 29.072,5.078 28.902,5.572 ZM11.000,19.998 C12.657,19.998 14.000,21.342 14.000,22.999 C14.000,24.656 12.657,25.999 11.000,25.999 C9.343,25.999 8.000,24.656 8.000,22.999 C8.000,21.342 9.343,19.998 11.000,19.998 ZM22.000,19.998 C23.657,19.998 25.000,21.342 25.000,22.999 C25.000,24.656 23.657,25.999 22.000,25.999 C20.343,25.999 19.000,24.656 19.000,22.999 C19.000,21.342 20.343,19.998 22.000,19.998 Z"/>
</svg>